<svg xmlns="http://www.w3.org/2000/svg" viewBox="0 0 1600 980"><defs><linearGradient id="b" x2="1" y2="1"><stop stop-color="#081512"/><stop offset="1" stop-color="#11251f"/></linearGradient><linearGradient id="a" x2="1"><stop stop-color="#62e0b5"/><stop offset="1" stop-color="#4fb6ff"/></linearGradient></defs><rect width="1600" height="980" rx="42" fill="url(#b)"/><rect x="70" y="62" width="1460" height="856" rx="32" fill="#0d1a17" stroke="#285046"/><rect x="70" y="62" width="1460" height="64" rx="32" fill="#12211e"/><circle cx="110" cy="94" r="7" fill="#ff5f57"/><circle cx="134" cy="94" r="7" fill="#febc2e"/><circle cx="158" cy="94" r="7" fill="#28c840"/><text x="110" y="180" fill="#f7fffc" font-family="Arial" font-size="34" font-weight="800">Agente SQL auditado</text><text x="110" y="220" fill="#8fb4aa" font-family="Arial" font-size="19">Consulta datos con políticas de solo lectura, límites y trazabilidad.</text><rect x="110" y="270" width="720" height="550" rx="28" fill="#091310" stroke="#22443b"/><text x="145" y="316" fill="#62e0b5" font-family="Consolas,monospace" font-size="21" font-weight="700">Pregunta del usuario</text><rect x="145" y="342" width="650" height="70" rx="16" fill="#13251f"/><text x="170" y="385" fill="#eefcf7" font-family="Arial" font-size="20">¿Cuál fue el consumo promedio por sector?</text><text x="145" y="470" fill="#62e0b5" font-family="Consolas,monospace" font-size="21" font-weight="700">SQL propuesto</text><rect x="145" y="496" width="650" height="210" rx="18" fill="#06100d" stroke="#1e4037"/><g font-family="Consolas,monospace" font-size="19"><text x="175" y="540" fill="#5ccfff">SELECT</text><text x="260" y="540" fill="#f5fbf8"> sector, AVG(consumo) promedio</text><text x="175" y="580" fill="#5ccfff">FROM</text><text x="240" y="580" fill="#f5fbf8"> mediciones</text><text x="175" y="620" fill="#5ccfff">WHERE</text><text x="255" y="620" fill="#f5fbf8"> periodo &gt;= '2026-01'</text><text x="175" y="660" fill="#5ccfff">GROUP BY</text><text x="285" y="660" fill="#f5fbf8"> sector</text></g><rect x="145" y="740" width="190" height="48" rx="14" fill="url(#a)"/><text x="180" y="771" fill="#062018" font-family="Arial" font-size="17" font-weight="800">Consulta validada</text><rect x="870" y="270" width="620" height="250" rx="28" fill="#11231e"/><text x="905" y="316" fill="#fff" font-family="Arial" font-size="25" font-weight="700">Controles de seguridad</text><g font-family="Arial" font-size="18"><text x="910" y="370" fill="#6ee0b7">✓ Solo lectura</text><text x="1115" y="370" fill="#6ee0b7">✓ Límite de filas</text><text x="910" y="414" fill="#6ee0b7">✓ Columnas permitidas</text><text x="1115" y="414" fill="#6ee0b7">✓ Auditoría activa</text><text x="910" y="458" fill="#6ee0b7">✓ Timeout configurado</text></g><rect x="870" y="550" width="620" height="270" rx="28" fill="#11231e"/><text x="905" y="596" fill="#fff" font-family="Arial" font-size="25" font-weight="700">Resultado resumido</text><g font-family="Arial"><text x="905" y="666" fill="#8fb4aa" font-size="18">Sector Norte</text><text x="1260" y="666" fill="#fff" font-size="26" font-weight="800">18.4 m³</text><text x="905" y="722" fill="#8fb4aa" font-size="18">Sector Centro</text><text x="1260" y="722" fill="#fff" font-size="26" font-weight="800">16.9 m³</text><text x="905" y="778" fill="#8fb4aa" font-size="18">Sector Sur</text><text x="1260" y="778" fill="#fff" font-size="26" font-weight="800">20.1 m³</text></g><text x="110" y="900" fill="#83aa9f" font-family="Arial" font-size="18">Python · PostgreSQL · Guardrails · Solo lectura · Auditoría</text></svg>