<svg width="1600" height="980" viewBox="0 0 1600 980" fill="none" xmlns="http://www.w3.org/2000/svg"><defs><linearGradient id="bg3" x1="0" y1="0" x2="1600" y2="980"><stop stop-color="#0B1120"/><stop offset="1" stop-color="#111D2F"/></linearGradient><linearGradient id="card3" x1="0" y1="0" x2="1" y2="1"><stop stop-color="#17253D"/><stop offset="1" stop-color="#102034"/></linearGradient><linearGradient id="accent3" x1="0" y1="0" x2="1" y2="1"><stop stop-color="#7FA8FF"/><stop offset="1" stop-color="#66F1D5"/></linearGradient></defs><rect width="1600" height="980" rx="40" fill="url(#bg3)"/><rect x="50" y="54" width="1500" height="872" rx="34" fill="#0C1629" stroke="#263C60"/><rect x="50" y="54" width="1500" height="64" rx="34" fill="#0E1A32"/><circle cx="92" cy="86" r="7" fill="#FF5F57"/><circle cx="116" cy="86" r="7" fill="#FEBC2E"/><circle cx="140" cy="86" r="7" fill="#28C840"/><text x="112" y="168" fill="#F8FBFF" font-family="Inter, Arial, sans-serif" font-size="34" font-weight="800">API empresarial para ERP</text><text x="112" y="208" fill="#8FAAD5" font-family="Inter, Arial, sans-serif" font-size="20">Servicios REST en C# y .NET 7 para módulos transaccionales, reportes y consultas seguras.</text><rect x="112" y="248" width="640" height="618" rx="26" fill="#0D172A" stroke="#243A61"/><text x="144" y="290" fill="#7FD9FF" font-family="IBM Plex Mono, Consolas, monospace" font-size="20" font-weight="700">/api/v1/orders</text><rect x="144" y="318" width="104" height="34" rx="10" fill="#12314A"/><text x="174" y="341" fill="#70F0C8" font-family="IBM Plex Mono, Consolas, monospace" font-size="18" font-weight="700">GET</text><rect x="144" y="376" width="576" height="430" rx="20" fill="#0A1323" stroke="#21375D"/><text x="176" y="422" fill="#8FB0D7" font-family="IBM Plex Mono, Consolas, monospace" font-size="20">{</text><text x="196" y="460" fill="#7FA8FF" font-family="IBM Plex Mono, Consolas, monospace" font-size="20">"status"</text><text x="280" y="460" fill="#EAF2FF" font-family="IBM Plex Mono, Consolas, monospace" font-size="20">: "ok",</text><text x="196" y="500" fill="#7FA8FF" font-family="IBM Plex Mono, Consolas, monospace" font-size="20">"module"</text><text x="284" y="500" fill="#EAF2FF" font-family="IBM Plex Mono, Consolas, monospace" font-size="20">: "orders",</text><text x="196" y="540" fill="#7FA8FF" font-family="IBM Plex Mono, Consolas, monospace" font-size="20">"items"</text><text x="268" y="540" fill="#EAF2FF" font-family="IBM Plex Mono, Consolas, monospace" font-size="20">: 148,</text><text x="196" y="580" fill="#7FA8FF" font-family="IBM Plex Mono, Consolas, monospace" font-size="20">"report"</text><text x="286" y="580" fill="#EAF2FF" font-family="IBM Plex Mono, Consolas, monospace" font-size="20">: "devexpress",</text><text x="196" y="620" fill="#7FA8FF" font-family="IBM Plex Mono, Consolas, monospace" font-size="20">"auth"</text><text x="262" y="620" fill="#EAF2FF" font-family="IBM Plex Mono, Consolas, monospace" font-size="20">: "jwt",</text><text x="196" y="660" fill="#7FA8FF" font-family="IBM Plex Mono, Consolas, monospace" font-size="20">"latencyMs"</text><text x="300" y="660" fill="#EAF2FF" font-family="IBM Plex Mono, Consolas, monospace" font-size="20">: 124</text><text x="176" y="704" fill="#8FB0D7" font-family="IBM Plex Mono, Consolas, monospace" font-size="20">}</text><rect x="792" y="248" width="646" height="176" rx="24" fill="url(#card3)" stroke="#243A61"/><text x="824" y="292" fill="#F8FBFF" font-family="Inter, Arial, sans-serif" font-size="24" font-weight="700">Indicadores del servicio</text><text x="824" y="354" fill="#72F0C8" font-family="Inter, Arial, sans-serif" font-size="18" font-weight="700">Disponibilidad</text><text x="824" y="392" fill="#F8FBFF" font-family="Inter, Arial, sans-serif" font-size="54" font-weight="900">99.9%</text><text x="1088" y="354" fill="#93B5FF" font-family="Inter, Arial, sans-serif" font-size="18" font-weight="700">Solicitudes</text><text x="1088" y="392" fill="#F8FBFF" font-family="Inter, Arial, sans-serif" font-size="54" font-weight="900">1.2M</text><rect x="792" y="450" width="646" height="416" rx="24" fill="#101C34" stroke="#243A61"/><text x="824" y="494" fill="#F8FBFF" font-family="Inter, Arial, sans-serif" font-size="24" font-weight="700">Arquitectura</text><rect x="824" y="538" width="162" height="70" rx="18" fill="#142444"/><text x="858" y="580" fill="#EAF2FF" font-family="Inter, Arial, sans-serif" font-size="20" font-weight="700">Cliente</text><rect x="1040" y="538" width="162" height="70" rx="18" fill="#142444"/><text x="1074" y="580" fill="#EAF2FF" font-family="Inter, Arial, sans-serif" font-size="20" font-weight="700">API .NET 7</text><rect x="1256" y="538" width="150" height="70" rx="18" fill="#142444"/><text x="1290" y="580" fill="#EAF2FF" font-family="Inter, Arial, sans-serif" font-size="20" font-weight="700">SQL</text><line x1="986" y1="573" x2="1030" y2="573" stroke="url(#accent3)" stroke-width="8" stroke-linecap="round"/><line x1="1202" y1="573" x2="1246" y2="573" stroke="url(#accent3)" stroke-width="8" stroke-linecap="round"/><rect x="824" y="648" width="582" height="178" rx="20" fill="#142444"/><text x="854" y="694" fill="#EAF2FF" font-family="Inter, Arial, sans-serif" font-size="20">• Reportes dinámicos con DevExpress</text><text x="854" y="734" fill="#EAF2FF" font-family="Inter, Arial, sans-serif" font-size="20">• Autenticación JWT y reglas de acceso</text><text x="854" y="774" fill="#EAF2FF" font-family="Inter, Arial, sans-serif" font-size="20">• Endpoints auditables y soporte para ERP</text><text x="112" y="902" fill="#8EA8D2" font-family="Inter, Arial, sans-serif" font-size="18">C# · .NET 7 · SQL · ADO.NET · DevExpress · APIs REST</text></svg>