<svg width="1600" height="980" viewBox="0 0 1600 980" fill="none" xmlns="http://www.w3.org/2000/svg"><defs><linearGradient id="bg1" x1="0" y1="0" x2="1600" y2="980"><stop stop-color="#0C1021"/><stop offset="1" stop-color="#101B37"/></linearGradient><linearGradient id="card1" x1="0" y1="0" x2="1" y2="1"><stop stop-color="#172448"/><stop offset="1" stop-color="#10192F"/></linearGradient><linearGradient id="accent1" x1="0" y1="0" x2="1" y2="1"><stop stop-color="#6DD3FF"/><stop offset="1" stop-color="#5987FF"/></linearGradient><filter id="shadow" x="-20%" y="-20%" width="140%" height="140%"><feDropShadow dx="0" dy="18" stdDeviation="24" flood-color="#020617" flood-opacity="0.35"/></filter></defs><rect width="1600" height="980" rx="40" fill="url(#bg1)"/><circle cx="1320" cy="180" r="180" fill="#61A8FF" fill-opacity="0.10"/><circle cx="220" cy="150" r="120" fill="#8B5CFF" fill-opacity="0.10"/><rect x="56" y="58" width="1488" height="864" rx="32" fill="#0D152B" stroke="#2D416B" filter="url(#shadow)"/><rect x="56" y="58" width="1488" height="64" rx="32" fill="#0E1A34"/><circle cx="96" cy="90" r="7" fill="#FF5F57"/><circle cx="120" cy="90" r="7" fill="#FEBC2E"/><circle cx="144" cy="90" r="7" fill="#28C840"/><rect x="88" y="164" width="230" height="690" rx="24" fill="#101B36" stroke="#213560"/><text x="112" y="204" fill="#F8FBFF" font-family="Inter, Arial, sans-serif" font-weight="700" font-size="24">Colegio Sigma</text><rect x="110" y="238" width="186" height="56" rx="18" fill="url(#accent1)"/><text x="132" y="272" fill="#0B1730" font-family="Inter, Arial, sans-serif" font-weight="700" font-size="19">Dashboard general</text><g fill="#8AA3CD" font-family="Inter, Arial, sans-serif" font-size="18" font-weight="600"><text x="112" y="340">Alumnos</text><text x="112" y="388">Docentes</text><text x="112" y="436">Cursos</text><text x="112" y="484">Comunicación</text><text x="112" y="532">Pagos</text><text x="112" y="580">Asistencia</text></g><rect x="354" y="164" width="1148" height="130" rx="24" fill="#111E3B" stroke="#213560"/><text x="394" y="210" fill="#F8FBFF" font-family="Inter, Arial, sans-serif" font-weight="800" font-size="30">Plataforma de gestión educativa</text><text x="394" y="248" fill="#91A9D3" font-family="Inter, Arial, sans-serif" font-size="20">Matrículas, asistencia, notificaciones, cursos, salones, pagos y analítica en una sola vista.</text><g><rect x="394" y="326" width="240" height="160" rx="22" fill="url(#card1)" stroke="#223765"/><text x="424" y="372" fill="#7CD5FF" font-family="Inter, Arial, sans-serif" font-size="18" font-weight="700">Estudiantes activos</text><text x="424" y="438" fill="#F8FBFF" font-family="Inter, Arial, sans-serif" font-size="58" font-weight="800">1,248</text><text x="424" y="468" fill="#8FB0D7" font-family="Inter, Arial, sans-serif" font-size="18">+8.4% mensual</text></g><g><rect x="656" y="326" width="240" height="160" rx="22" fill="url(#card1)" stroke="#223765"/><text x="686" y="372" fill="#A9B7FF" font-family="Inter, Arial, sans-serif" font-size="18" font-weight="700">Asistencia</text><text x="686" y="438" fill="#F8FBFF" font-family="Inter, Arial, sans-serif" font-size="58" font-weight="800">96%</text><text x="686" y="468" fill="#8FB0D7" font-family="Inter, Arial, sans-serif" font-size="18">Promedio semanal</text></g><g><rect x="918" y="326" width="240" height="160" rx="22" fill="url(#card1)" stroke="#223765"/><text x="948" y="372" fill="#8FF0C7" font-family="Inter, Arial, sans-serif" font-size="18" font-weight="700">Cursos</text><text x="948" y="438" fill="#F8FBFF" font-family="Inter, Arial, sans-serif" font-size="58" font-weight="800">42</text><text x="948" y="468" fill="#8FB0D7" font-family="Inter, Arial, sans-serif" font-size="18">Áreas y secciones</text></g><g><rect x="1180" y="326" width="282" height="160" rx="22" fill="url(#card1)" stroke="#223765"/><text x="1210" y="372" fill="#FFCC7A" font-family="Inter, Arial, sans-serif" font-size="18" font-weight="700">Notificaciones</text><text x="1210" y="438" fill="#F8FBFF" font-family="Inter, Arial, sans-serif" font-size="58" font-weight="800">328</text><text x="1210" y="468" fill="#8FB0D7" font-family="Inter, Arial, sans-serif" font-size="18">Envíos esta semana</text></g><rect x="394" y="520" width="540" height="294" rx="24" fill="#111E3B" stroke="#223765"/><text x="426" y="562" fill="#F8FBFF" font-family="Inter, Arial, sans-serif" font-size="24" font-weight="700">Rendimiento por nivel</text><polyline points="442,744 510,690 584,706 648,628 720,660 792,596 870,620" fill="none" stroke="url(#accent1)" stroke-width="10" stroke-linecap="round" stroke-linejoin="round"/><circle cx="442" cy="744" r="7" fill="#6DD3FF"/><circle cx="510" cy="690" r="7" fill="#6DD3FF"/><circle cx="584" cy="706" r="7" fill="#6DD3FF"/><circle cx="648" cy="628" r="7" fill="#6DD3FF"/><circle cx="720" cy="660" r="7" fill="#6DD3FF"/><circle cx="792" cy="596" r="7" fill="#6DD3FF"/><circle cx="870" cy="620" r="7" fill="#6DD3FF"/><g fill="#7E95BD" font-family="Inter, Arial, sans-serif" font-size="16"><text x="442" y="784">1°</text><text x="512" y="784">2°</text><text x="584" y="784">3°</text><text x="648" y="784">4°</text><text x="720" y="784">5°</text><text x="792" y="784">6°</text></g><rect x="960" y="520" width="502" height="294" rx="24" fill="#111E3B" stroke="#223765"/><text x="992" y="562" fill="#F8FBFF" font-family="Inter, Arial, sans-serif" font-size="24" font-weight="700">Bandeja reciente</text><g><rect x="992" y="592" width="438" height="48" rx="14" fill="#16264A"/><text x="1018" y="622" fill="#EAF2FF" font-family="Inter, Arial, sans-serif" font-size="18">Nueva matrícula · 6° Primaria · Confirmada</text><rect x="992" y="652" width="438" height="48" rx="14" fill="#16264A"/><text x="1018" y="682" fill="#EAF2FF" font-family="Inter, Arial, sans-serif" font-size="18">Recordatorio de pago · Enviado a 54 familias</text><rect x="992" y="712" width="438" height="48" rx="14" fill="#16264A"/><text x="1018" y="742" fill="#EAF2FF" font-family="Inter, Arial, sans-serif" font-size="18">Reporte semanal de asistencia · Disponible</text></g><text x="88" y="890" fill="#8EA8D2" font-family="Inter, Arial, sans-serif" font-size="18">Vue.js · C# · SQL Server · DevExtreme · Sistema integral</text></svg>