<svg xmlns="http://www.w3.org/2000/svg" viewBox="0 0 1600 980"><defs><linearGradient id="b" x2="1" y2="1"><stop stop-color="#11141f"/><stop offset="1" stop-color="#282019"/></linearGradient><linearGradient id="a" x2="1"><stop stop-color="#ffb15f"/><stop offset="1" stop-color="#ff7a59"/></linearGradient></defs><rect width="1600" height="980" rx="42" fill="url(#b)"/><rect x="70" y="62" width="1460" height="856" rx="32" fill="#151922" stroke="#4e4238"/><rect x="70" y="62" width="1460" height="64" rx="32" fill="#1c202b"/><circle cx="110" cy="94" r="7" fill="#ff5f57"/><circle cx="134" cy="94" r="7" fill="#febc2e"/><circle cx="158" cy="94" r="7" fill="#28c840"/><text x="110" y="182" fill="#fff" font-family="Arial" font-size="34" font-weight="800">Centro de automatizaciones</text><text x="110" y="222" fill="#b1a79e" font-family="Arial" font-size="19">Flujos con reglas, aprobación humana, reintentos y trazabilidad.</text><rect x="110" y="270" width="1380" height="210" rx="28" fill="#1d222d"/><g font-family="Arial" font-size="19" font-weight="700"><rect x="150" y="330" width="205" height="84" rx="20" fill="#2a303c"/><text x="205" y="380" fill="#fff">Entrada</text><rect x="405" y="330" width="205" height="84" rx="20" fill="url(#a)"/><text x="452" y="380" fill="#21130b">Validación</text><rect x="660" y="330" width="205" height="84" rx="20" fill="#2a303c"/><text x="712" y="380" fill="#fff">Agente IA</text><rect x="915" y="330" width="205" height="84" rx="20" fill="#2a303c"/><text x="958" y="380" fill="#fff">Aprobación</text><rect x="1170" y="330" width="250" height="84" rx="20" fill="#2a303c"/><text x="1242" y="380" fill="#fff">Acción + log</text></g><g stroke="#ff9a55" stroke-width="8" stroke-linecap="round"><path d="M355 372h42"/><path d="M610 372h42"/><path d="M865 372h42"/><path d="M1120 372h42"/></g><rect x="110" y="520" width="865" height="332" rx="28" fill="#1d222d"/><text x="145" y="566" fill="#fff" font-family="Arial" font-size="25" font-weight="700">Ejecuciones recientes</text><g font-family="Arial" font-size="18"><rect x="145" y="605" width="795" height="58" rx="16" fill="#272d38"/><text x="170" y="641" fill="#fff">Consolidación de archivos</text><text x="710" y="641" fill="#72dfa8">Completado · 04:12</text><rect x="145" y="680" width="795" height="58" rx="16" fill="#272d38"/><text x="170" y="716" fill="#fff">Reporte comercial</text><text x="710" y="716" fill="#ffc46b">Esperando aprobación</text><rect x="145" y="755" width="795" height="58" rx="16" fill="#272d38"/><text x="170" y="791" fill="#fff">Sincronización API</text><text x="710" y="791" fill="#72dfa8">Completado · 00:54</text></g><rect x="1010" y="520" width="480" height="332" rx="28" fill="#1d222d"/><text x="1045" y="566" fill="#fff" font-family="Arial" font-size="25" font-weight="700">Impacto mensual</text><text x="1045" y="656" fill="#ff9a55" font-family="Arial" font-size="68" font-weight="900">312 h</text><text x="1045" y="698" fill="#b8afa7" font-family="Arial" font-size="19">estimadas de trabajo manual evitado</text><text x="1045" y="770" fill="#fff" font-family="Arial" font-size="26" font-weight="700">99.3% de éxito</text><text x="110" y="900" fill="#a89d93" font-family="Arial" font-size="18">Python · Workers · APIs · Webhooks · Reintentos · Logs</text></svg>