<svg width="1600" height="980" viewBox="0 0 1600 980" fill="none" xmlns="http://www.w3.org/2000/svg"><defs><linearGradient id="bg2" x1="0" y1="0" x2="1600" y2="980"><stop stop-color="#091322"/><stop offset="1" stop-color="#102136"/></linearGradient><linearGradient id="panel2" x1="0" y1="0" x2="1" y2="1"><stop stop-color="#15263E"/><stop offset="1" stop-color="#102034"/></linearGradient><linearGradient id="accent2" x1="0" y1="0" x2="1" y2="1"><stop stop-color="#73F2C7"/><stop offset="1" stop-color="#42B9FF"/></linearGradient><filter id="shadow2" x="-20%" y="-20%" width="140%" height="140%"><feDropShadow dx="0" dy="20" stdDeviation="26" flood-color="#010B16" flood-opacity="0.35"/></filter></defs><rect width="1600" height="980" rx="40" fill="url(#bg2)"/><circle cx="1260" cy="170" r="190" fill="#4CE3BF" fill-opacity="0.08"/><rect x="52" y="56" width="1496" height="868" rx="34" fill="#0C1629" stroke="#23385B" filter="url(#shadow2)"/><rect x="52" y="56" width="1496" height="64" rx="34" fill="#0E1B32"/><circle cx="94" cy="88" r="7" fill="#FF5F57"/><circle cx="118" cy="88" r="7" fill="#FEBC2E"/><circle cx="142" cy="88" r="7" fill="#28C840"/><text x="112" y="170" fill="#F8FBFF" font-family="Inter, Arial, sans-serif" font-size="34" font-weight="800">Módulo de talento humano</text><text x="112" y="212" fill="#8FAAD5" font-family="Inter, Arial, sans-serif" font-size="20">Control de personal, asistencia, tardanzas, memorándums, planilla y analítica operativa.</text><rect x="112" y="254" width="1376" height="118" rx="26" fill="#101C34" stroke="#243A61"/><g><rect x="144" y="286" width="236" height="56" rx="18" fill="url(#accent2)"/><text x="168" y="320" fill="#062033" font-family="Inter, Arial, sans-serif" font-size="20" font-weight="800">Resumen de RR.HH.</text></g><g><rect x="112" y="408" width="304" height="192" rx="24" fill="url(#panel2)" stroke="#264066"/><text x="142" y="452" fill="#78F0C9" font-family="Inter, Arial, sans-serif" font-size="18" font-weight="700">Colaboradores</text><text x="142" y="528" fill="#F8FBFF" font-family="Inter, Arial, sans-serif" font-size="72" font-weight="900">186</text><text x="142" y="562" fill="#8FAAD5" font-family="Inter, Arial, sans-serif" font-size="18">Activos en la organización</text></g><g><rect x="438" y="408" width="304" height="192" rx="24" fill="url(#panel2)" stroke="#264066"/><text x="468" y="452" fill="#9AC6FF" font-family="Inter, Arial, sans-serif" font-size="18" font-weight="700">Puntualidad</text><text x="468" y="528" fill="#F8FBFF" font-family="Inter, Arial, sans-serif" font-size="72" font-weight="900">92%</text><text x="468" y="562" fill="#8FAAD5" font-family="Inter, Arial, sans-serif" font-size="18">Cumplimiento semanal</text></g><g><rect x="764" y="408" width="304" height="192" rx="24" fill="url(#panel2)" stroke="#264066"/><text x="794" y="452" fill="#FFD180" font-family="Inter, Arial, sans-serif" font-size="18" font-weight="700">Memorándums</text><text x="794" y="528" fill="#F8FBFF" font-family="Inter, Arial, sans-serif" font-size="72" font-weight="900">12</text><text x="794" y="562" fill="#8FAAD5" font-family="Inter, Arial, sans-serif" font-size="18">Seguimientos abiertos</text></g><g><rect x="1090" y="408" width="398" height="192" rx="24" fill="url(#panel2)" stroke="#264066"/><text x="1120" y="452" fill="#F3A9FF" font-family="Inter, Arial, sans-serif" font-size="18" font-weight="700">Planilla proyectada</text><text x="1120" y="528" fill="#F8FBFF" font-family="Inter, Arial, sans-serif" font-size="56" font-weight="900">S/ 418,250</text><text x="1120" y="562" fill="#8FAAD5" font-family="Inter, Arial, sans-serif" font-size="18">Periodo actual</text></g><rect x="112" y="632" width="650" height="236" rx="24" fill="#101C34" stroke="#243A61"/><text x="144" y="676" fill="#F8FBFF" font-family="Inter, Arial, sans-serif" font-size="24" font-weight="700">Asistencia por área</text><rect x="146" y="724" width="130" height="22" rx="11" fill="#1D3354"/><rect x="146" y="724" width="110" height="22" rx="11" fill="#6FE7C0"/><text x="292" y="741" fill="#EAF2FF" font-family="Inter, Arial, sans-serif" font-size="18">Administración · 84%</text><rect x="146" y="770" width="130" height="22" rx="11" fill="#1D3354"/><rect x="146" y="770" width="120" height="22" rx="11" fill="#5AAEFF"/><text x="292" y="787" fill="#EAF2FF" font-family="Inter, Arial, sans-serif" font-size="18">Académico · 92%</text><rect x="146" y="816" width="130" height="22" rx="11" fill="#1D3354"/><rect x="146" y="816" width="102" height="22" rx="11" fill="#9D7CFF"/><text x="292" y="833" fill="#EAF2FF" font-family="Inter, Arial, sans-serif" font-size="18">Servicios · 78%</text><rect x="790" y="632" width="698" height="236" rx="24" fill="#101C34" stroke="#243A61"/><text x="822" y="676" fill="#F8FBFF" font-family="Inter, Arial, sans-serif" font-size="24" font-weight="700">Alertas y acciones</text><rect x="822" y="708" width="634" height="50" rx="15" fill="#142444"/><text x="850" y="740" fill="#F8FBFF" font-family="Inter, Arial, sans-serif" font-size="18">6 registros de tardanza requieren validación</text><rect x="822" y="772" width="634" height="50" rx="15" fill="#142444"/><text x="850" y="804" fill="#F8FBFF" font-family="Inter, Arial, sans-serif" font-size="18">Planilla de julio lista para revisión y exportación</text><text x="112" y="904" fill="#8EA8D2" font-family="Inter, Arial, sans-serif" font-size="18">Vue.js · JavaScript · Vuetify · DevExtreme · Quasar · RR.HH.</text></svg>