<svg width="1600" height="980" viewBox="0 0 1600 980" fill="none" xmlns="http://www.w3.org/2000/svg"><defs><linearGradient id="bg4" x1="0" y1="0" x2="1600" y2="980"><stop stop-color="#0B1120"/><stop offset="1" stop-color="#141E38"/></linearGradient><linearGradient id="glass4" x1="0" y1="0" x2="1" y2="1"><stop stop-color="#1A284B" stop-opacity="0.95"/><stop offset="1" stop-color="#111C34" stop-opacity="0.95"/></linearGradient><linearGradient id="accent4" x1="0" y1="0" x2="1" y2="1"><stop stop-color="#8B5CFF"/><stop offset="1" stop-color="#64E6B2"/></linearGradient></defs><rect width="1600" height="980" rx="40" fill="url(#bg4)"/><circle cx="1270" cy="200" r="180" fill="#8B5CFF" fill-opacity="0.10"/><circle cx="260" cy="180" r="120" fill="#63D8FF" fill-opacity="0.10"/><rect x="58" y="62" width="1484" height="856" rx="34" fill="#0D162B" stroke="#2B3F66"/><text x="112" y="156" fill="#F8FBFF" font-family="Inter, Arial, sans-serif" font-size="36" font-weight="800">IA Lab · Automatizaciones y chatbots</text><text x="112" y="198" fill="#91A9D3" font-family="Inter, Arial, sans-serif" font-size="20">Soluciones con Python, LLMs y automatización de procesos conectadas a APIs, documentos y bases de datos.</text><rect x="112" y="246" width="380" height="270" rx="26" fill="url(#glass4)" stroke="#30446F"/><text x="144" y="292" fill="#BCA8FF" font-family="Inter, Arial, sans-serif" font-size="18" font-weight="700">Agente de automatización</text><text x="144" y="336" fill="#F8FBFF" font-family="Inter, Arial, sans-serif" font-size="34" font-weight="800">Orquesta tareas entre IA y APIs</text><text x="144" y="396" fill="#8FAAD5" font-family="Inter, Arial, sans-serif" font-size="18">Distribuye acciones, valida resultados, registra auditoría y reduce intervención manual.</text><rect x="530" y="246" width="440" height="270" rx="26" fill="url(#glass4)" stroke="#30446F"/><text x="562" y="292" fill="#7EE4C1" font-family="Inter, Arial, sans-serif" font-size="18" font-weight="700">Chatbot conectado</text><rect x="562" y="324" width="374" height="60" rx="18" fill="#142444"/><text x="590" y="360" fill="#EAF2FF" font-family="Inter, Arial, sans-serif" font-size="20">¿Cuál es el estado de la OT-2034?</text><rect x="562" y="400" width="320" height="78" rx="18" fill="#1B315A"/><text x="590" y="436" fill="#F8FBFF" font-family="Inter, Arial, sans-serif" font-size="18">Encontré el registro, evidencias y</text><text x="590" y="460" fill="#F8FBFF" font-family="Inter, Arial, sans-serif" font-size="18">última actividad sincronizada.</text><rect x="1008" y="246" width="432" height="270" rx="26" fill="url(#glass4)" stroke="#30446F"/><text x="1040" y="292" fill="#8FD4FF" font-family="Inter, Arial, sans-serif" font-size="18" font-weight="700">Arquitectura de una solución IA</text><rect x="1040" y="336" width="110" height="58" rx="16" fill="#142444"/><text x="1068" y="372" fill="#F8FBFF" font-family="Inter, Arial, sans-serif" font-size="18" font-weight="700">UI</text><rect x="1174" y="336" width="110" height="58" rx="16" fill="#142444"/><text x="1192" y="372" fill="#F8FBFF" font-family="Inter, Arial, sans-serif" font-size="18" font-weight="700">FastAPI</text><rect x="1308" y="336" width="100" height="58" rx="16" fill="#142444"/><text x="1334" y="372" fill="#F8FBFF" font-family="Inter, Arial, sans-serif" font-size="18" font-weight="700">LLM</text><line x1="1150" y1="365" x2="1164" y2="365" stroke="url(#accent4)" stroke-width="8" stroke-linecap="round"/><line x1="1284" y1="365" x2="1298" y2="365" stroke="url(#accent4)" stroke-width="8" stroke-linecap="round"/><rect x="1174" y="426" width="110" height="58" rx="16" fill="#142444"/><text x="1194" y="462" fill="#F8FBFF" font-family="Inter, Arial, sans-serif" font-size="18" font-weight="700">RAG</text><rect x="1308" y="426" width="100" height="58" rx="16" fill="#142444"/><text x="1328" y="462" fill="#F8FBFF" font-family="Inter, Arial, sans-serif" font-size="18" font-weight="700">SQL</text><line x1="1229" y1="394" x2="1229" y2="418" stroke="url(#accent4)" stroke-width="8" stroke-linecap="round"/><line x1="1358" y1="394" x2="1358" y2="418" stroke="url(#accent4)" stroke-width="8" stroke-linecap="round"/><rect x="112" y="560" width="1328" height="282" rx="28" fill="#101B34" stroke="#30446F"/><text x="144" y="606" fill="#F8FBFF" font-family="Inter, Arial, sans-serif" font-size="26" font-weight="800">Cards de especialización</text><g><rect x="144" y="644" width="288" height="156" rx="22" fill="#152746"/><text x="172" y="684" fill="#BCA8FF" font-family="Inter, Arial, sans-serif" font-size="18" font-weight="700">Automatizaciones</text><text x="172" y="730" fill="#F8FBFF" font-family="Inter, Arial, sans-serif" font-size="18">Bots y flujos para reducir tareas</text><text x="172" y="756" fill="#F8FBFF" font-family="Inter, Arial, sans-serif" font-size="18">manuales y validar procesos.</text><rect x="464" y="644" width="288" height="156" rx="22" fill="#152746"/><text x="492" y="684" fill="#7EE4C1" font-family="Inter, Arial, sans-serif" font-size="18" font-weight="700">Chatbots</text><text x="492" y="730" fill="#F8FBFF" font-family="Inter, Arial, sans-serif" font-size="18">Asistentes conectados a datos,</text><text x="492" y="756" fill="#F8FBFF" font-family="Inter, Arial, sans-serif" font-size="18">documentos, APIs y acciones.</text><rect x="784" y="644" width="288" height="156" rx="22" fill="#152746"/><text x="812" y="684" fill="#8FD4FF" font-family="Inter, Arial, sans-serif" font-size="18" font-weight="700">Agentes con IA</text><text x="812" y="730" fill="#F8FBFF" font-family="Inter, Arial, sans-serif" font-size="18">LLMs con herramientas, auditoría</text><text x="812" y="756" fill="#F8FBFF" font-family="Inter, Arial, sans-serif" font-size="18">y control humano.</text><rect x="1104" y="644" width="304" height="156" rx="22" fill="#152746"/><text x="1132" y="684" fill="#FFD180" font-family="Inter, Arial, sans-serif" font-size="18" font-weight="700">Python + FastAPI</text><text x="1132" y="730" fill="#F8FBFF" font-family="Inter, Arial, sans-serif" font-size="18">Servicios, integración, colas,</text><text x="1132" y="756" fill="#F8FBFF" font-family="Inter, Arial, sans-serif" font-size="18">APIs y lógica IA en producción.</text></g><text x="112" y="886" fill="#8EA8D2" font-family="Inter, Arial, sans-serif" font-size="18">Python · FastAPI · LLMs · RAG · APIs · Automatización · Auditoría</text></svg>