<svg xmlns="http://www.w3.org/2000/svg" viewBox="0 0 1600 980"><defs><linearGradient id="b" x2="1" y2="1"><stop stop-color="#0d1328"/><stop offset="1" stop-color="#1a1740"/></linearGradient><linearGradient id="a" x2="1"><stop stop-color="#8b7cff"/><stop offset="1" stop-color="#5ed8ff"/></linearGradient></defs><rect width="1600" height="980" rx="42" fill="url(#b)"/><rect x="70" y="62" width="1460" height="856" rx="32" fill="#10172d" stroke="#343b64"/><rect x="70" y="62" width="1460" height="64" rx="32" fill="#151c34"/><circle cx="110" cy="94" r="7" fill="#ff5f57"/><circle cx="134" cy="94" r="7" fill="#febc2e"/><circle cx="158" cy="94" r="7" fill="#28c840"/><rect x="105" y="160" width="300" height="706" rx="24" fill="#141c35"/><text x="138" y="208" fill="#fff" font-family="Arial" font-size="28" font-weight="700">Fuentes conectadas</text><g font-family="Arial" font-size="19"><rect x="132" y="248" width="246" height="62" rx="16" fill="#20294a"/><text x="158" y="286" fill="#dce4ff">Manual operativo</text><rect x="132" y="326" width="246" height="62" rx="16" fill="#20294a"/><text x="158" y="364" fill="#dce4ff">Órdenes de trabajo</text><rect x="132" y="404" width="246" height="62" rx="16" fill="#20294a"/><text x="158" y="442" fill="#dce4ff">Base documental</text><rect x="132" y="482" width="246" height="62" rx="16" fill="#20294a"/><text x="158" y="520" fill="#dce4ff">API de incidencias</text></g><text x="455" y="190" fill="#fff" font-family="Arial" font-size="34" font-weight="800">Asistente empresarial con contexto</text><text x="455" y="228" fill="#96a4c8" font-family="Arial" font-size="19">Conversaciones conectadas a documentos, APIs y datos autorizados.</text><rect x="455" y="270" width="980" height="520" rx="26" fill="#0d1428" stroke="#303a64"/><rect x="490" y="310" width="500" height="76" rx="20" fill="#242c4c"/><text x="520" y="356" fill="#fff" font-family="Arial" font-size="21">¿Cuál es el estado de la OT-2034?</text><rect x="700" y="420" width="680" height="128" rx="24" fill="url(#a)"/><text x="735" y="466" fill="#081327" font-family="Arial" font-size="21" font-weight="700">La orden está en ejecución y tiene 3 evidencias.</text><text x="735" y="504" fill="#11213a" font-family="Arial" font-size="18">Última actualización: hoy 10:42 · Responsable: Equipo Norte</text><rect x="490" y="590" width="470" height="72" rx="20" fill="#242c4c"/><text x="520" y="634" fill="#fff" font-family="Arial" font-size="21">Muéstrame las próximas acciones</text><rect x="850" y="690" width="530" height="54" rx="16" fill="#1f2948"/><text x="880" y="724" fill="#bfc9e8" font-family="Arial" font-size="17">3 fuentes utilizadas · confianza 96%</text><text x="105" y="900" fill="#8796bc" font-family="Arial" font-size="18">Python · FastAPI · RAG · LLM · APIs · Auditoría</text></svg>